<?xml version="1.0" standalone="no"?>
<!DOCTYPE svg PUBLIC "-//W3C//DTD SVG 20010904//EN"
 "http://www.w3.org/TR/2001/REC-SVG-20010904/DTD/svg10.dtd">
<svg version="1.0" xmlns="http://www.w3.org/2000/svg"
 width="512.000000pt" height="512.000000pt" viewBox="0 0 512.000000 512.000000"
 preserveAspectRatio="xMidYMid meet">

<g transform="translate(0.000000,512.000000) scale(0.100000,-0.100000)"
fill="#000000" stroke="none">
<path d="M2441 5109 c-202 -39 -377 -169 -470 -348 -55 -106 -74 -185 -74
-306 0 -118 19 -198 71 -305 49 -101 177 -230 279 -283 416 -215 906 39 973
505 41 280 -127 575 -395 693 -107 48 -271 66 -384 44z m228 -308 c220 -68
320 -316 210 -521 -38 -73 -92 -123 -168 -159 -48 -22 -69 -26 -151 -26 -88 0
-101 3 -162 33 -242 119 -274 458 -58 617 96 71 217 91 329 56z"/>
<path d="M2462 3219 c-140 -21 -267 -86 -371 -190 -262 -262 -262 -676 0 -938
262 -262 676 -262 938 0 363 363 195 984 -300 1113 -77 20 -192 26 -267 15z
m238 -322 c39 -14 73 -38 116 -81 78 -78 107 -148 107 -256 0 -108 -29 -178
-107 -256 -78 -78 -148 -107 -256 -107 -108 0 -178 29 -256 107 -78 78 -107
148 -107 256 0 99 28 172 94 245 106 115 256 149 409 92z"/>
<path d="M2392 1310 c-120 -32 -206 -83 -302 -179 -135 -136 -193 -276 -193
-466 0 -121 19 -200 74 -306 78 -150 222 -273 382 -326 71 -23 98 -27 207 -27
114 0 132 2 211 30 174 62 307 179 384 339 52 108 69 181 68 300 -1 181 -61
323 -193 456 -97 98 -183 148 -306 179 -100 26 -233 26 -332 0z m319 -312
c110 -51 186 -150 208 -273 32 -175 -77 -352 -250 -406 -138 -43 -278 -5 -382
105 -67 70 -104 196 -88 296 23 137 99 232 228 286 81 34 202 31 284 -8z"/>
</g>
</svg>
