<?xml version="1.0" standalone="no"?>
<!DOCTYPE svg PUBLIC "-//W3C//DTD SVG 20010904//EN"
 "http://www.w3.org/TR/2001/REC-SVG-20010904/DTD/svg10.dtd">
<svg version="1.0" xmlns="http://www.w3.org/2000/svg"
 width="512.000000pt" height="512.000000pt" viewBox="0 0 512.000000 512.000000"
 preserveAspectRatio="xMidYMid meet">

<g transform="translate(0.000000,512.000000) scale(0.100000,-0.100000)"
fill="#000000" stroke="none">
<path d="M2470 5063 c-449 -40 -827 -345 -963 -778 -51 -163 -60 -382 -23
-553 86 -394 390 -717 778 -827 558 -157 1149 151 1336 697 44 130 61 228 62
354 2 595 -457 1079 -1050 1107 -52 2 -115 3 -140 0z"/>
<path d="M2430 2534 c-442 -38 -792 -157 -1132 -385 -193 -130 -421 -349 -497
-476 -181 -306 -170 -668 29 -957 98 -143 221 -237 470 -361 406 -203 806
-298 1260 -297 285 0 505 29 768 103 248 70 538 200 732 328 324 214 468 638
341 1008 -47 136 -103 224 -230 355 -348 362 -800 593 -1296 662 -113 16 -364
27 -445 20z"/>
</g>
</svg>
